%TF.GenerationSoftware,KiCad,Pcbnew,(6.0.4)*%
%TF.CreationDate,2022-05-01T19:09:37-04:00*%
%TF.ProjectId,odin,6f64696e-2e6b-4696-9361-645f70636258,rev?*%
%TF.SameCoordinates,Original*%
%TF.FileFunction,Legend,Top*%
%TF.FilePolarity,Positive*%
%FSLAX46Y46*%
G04 Gerber Fmt 4.6, Leading zero omitted, Abs format (unit mm)*
G04 Created by KiCad (PCBNEW (6.0.4)) date 2022-05-01 19:09:37*
%MOMM*%
%LPD*%
G01*
G04 APERTURE LIST*
%ADD10C,0.300000*%
%ADD11C,0.150000*%
%ADD12C,0.120000*%
%ADD13C,1.900000*%
%ADD14C,3.450000*%
%ADD15C,3.200000*%
%ADD16R,1.700000X1.700000*%
%ADD17O,1.700000X1.700000*%
G04 APERTURE END LIST*
D10*
X143042857Y-121241428D02*
X143114285Y-121170000D01*
X143257142Y-121098571D01*
X143614285Y-121098571D01*
X143757142Y-121170000D01*
X143828571Y-121241428D01*
X143900000Y-121384285D01*
X143900000Y-121527142D01*
X143828571Y-121741428D01*
X142971428Y-122598571D01*
X143900000Y-122598571D01*
X144828571Y-121098571D02*
X144971428Y-121098571D01*
X145114285Y-121170000D01*
X145185714Y-121241428D01*
X145257142Y-121384285D01*
X145328571Y-121670000D01*
X145328571Y-122027142D01*
X145257142Y-122312857D01*
X145185714Y-122455714D01*
X145114285Y-122527142D01*
X144971428Y-122598571D01*
X144828571Y-122598571D01*
X144685714Y-122527142D01*
X144614285Y-122455714D01*
X144542857Y-122312857D01*
X144471428Y-122027142D01*
X144471428Y-121670000D01*
X144542857Y-121384285D01*
X144614285Y-121241428D01*
X144685714Y-121170000D01*
X144828571Y-121098571D01*
X145900000Y-121241428D02*
X145971428Y-121170000D01*
X146114285Y-121098571D01*
X146471428Y-121098571D01*
X146614285Y-121170000D01*
X146685714Y-121241428D01*
X146757142Y-121384285D01*
X146757142Y-121527142D01*
X146685714Y-121741428D01*
X145828571Y-122598571D01*
X146757142Y-122598571D01*
X147328571Y-121241428D02*
X147400000Y-121170000D01*
X147542857Y-121098571D01*
X147900000Y-121098571D01*
X148042857Y-121170000D01*
X148114285Y-121241428D01*
X148185714Y-121384285D01*
X148185714Y-121527142D01*
X148114285Y-121741428D01*
X147257142Y-122598571D01*
X148185714Y-122598571D01*
X149900000Y-122170000D02*
X150614285Y-122170000D01*
X149757142Y-122598571D02*
X150257142Y-121098571D01*
X150757142Y-122598571D01*
X151185714Y-122527142D02*
X151328571Y-122598571D01*
X151614285Y-122598571D01*
X151757142Y-122527142D01*
X151828571Y-122384285D01*
X151828571Y-122312857D01*
X151757142Y-122170000D01*
X151614285Y-122098571D01*
X151400000Y-122098571D01*
X151257142Y-122027142D01*
X151185714Y-121884285D01*
X151185714Y-121812857D01*
X151257142Y-121670000D01*
X151400000Y-121598571D01*
X151614285Y-121598571D01*
X151757142Y-121670000D01*
X152400000Y-122527142D02*
X152542857Y-122598571D01*
X152828571Y-122598571D01*
X152971428Y-122527142D01*
X153042857Y-122384285D01*
X153042857Y-122312857D01*
X152971428Y-122170000D01*
X152828571Y-122098571D01*
X152614285Y-122098571D01*
X152471428Y-122027142D01*
X152400000Y-121884285D01*
X152400000Y-121812857D01*
X152471428Y-121670000D01*
X152614285Y-121598571D01*
X152828571Y-121598571D01*
X152971428Y-121670000D01*
X153685714Y-122598571D02*
X153685714Y-121098571D01*
X154328571Y-122598571D02*
X154328571Y-121812857D01*
X154257142Y-121670000D01*
X154114285Y-121598571D01*
X153900000Y-121598571D01*
X153757142Y-121670000D01*
X153685714Y-121741428D01*
X155257142Y-122598571D02*
X155114285Y-122527142D01*
X155042857Y-122455714D01*
X154971428Y-122312857D01*
X154971428Y-121884285D01*
X155042857Y-121741428D01*
X155114285Y-121670000D01*
X155257142Y-121598571D01*
X155471428Y-121598571D01*
X155614285Y-121670000D01*
X155685714Y-121741428D01*
X155757142Y-121884285D01*
X155757142Y-122312857D01*
X155685714Y-122455714D01*
X155614285Y-122527142D01*
X155471428Y-122598571D01*
X155257142Y-122598571D01*
X156614285Y-122598571D02*
X156471428Y-122527142D01*
X156400000Y-122384285D01*
X156400000Y-121098571D01*
X157757142Y-122527142D02*
X157614285Y-122598571D01*
X157328571Y-122598571D01*
X157185714Y-122527142D01*
X157114285Y-122384285D01*
X157114285Y-121812857D01*
X157185714Y-121670000D01*
X157328571Y-121598571D01*
X157614285Y-121598571D01*
X157757142Y-121670000D01*
X157828571Y-121812857D01*
X157828571Y-121955714D01*
X157114285Y-122098571D01*
X158471428Y-122598571D02*
X158471428Y-121098571D01*
X158828571Y-121098571D01*
X159042857Y-121170000D01*
X159185714Y-121312857D01*
X159257142Y-121455714D01*
X159328571Y-121741428D01*
X159328571Y-121955714D01*
X159257142Y-122241428D01*
X159185714Y-122384285D01*
X159042857Y-122527142D01*
X158828571Y-122598571D01*
X158471428Y-122598571D01*
X160542857Y-122527142D02*
X160400000Y-122598571D01*
X160114285Y-122598571D01*
X159971428Y-122527142D01*
X159900000Y-122384285D01*
X159900000Y-121812857D01*
X159971428Y-121670000D01*
X160114285Y-121598571D01*
X160400000Y-121598571D01*
X160542857Y-121670000D01*
X160614285Y-121812857D01*
X160614285Y-121955714D01*
X159900000Y-122098571D01*
X161114285Y-121598571D02*
X161471428Y-122598571D01*
X161828571Y-121598571D01*
D11*
%TO.C,DOWN*%
X150519047Y-116132380D02*
X150519047Y-115132380D01*
X150757142Y-115132380D01*
X150900000Y-115180000D01*
X150995238Y-115275238D01*
X151042857Y-115370476D01*
X151090476Y-115560952D01*
X151090476Y-115703809D01*
X151042857Y-115894285D01*
X150995238Y-115989523D01*
X150900000Y-116084761D01*
X150757142Y-116132380D01*
X150519047Y-116132380D01*
X151709523Y-115132380D02*
X151900000Y-115132380D01*
X151995238Y-115180000D01*
X152090476Y-115275238D01*
X152138095Y-115465714D01*
X152138095Y-115799047D01*
X152090476Y-115989523D01*
X151995238Y-116084761D01*
X151900000Y-116132380D01*
X151709523Y-116132380D01*
X151614285Y-116084761D01*
X151519047Y-115989523D01*
X151471428Y-115799047D01*
X151471428Y-115465714D01*
X151519047Y-115275238D01*
X151614285Y-115180000D01*
X151709523Y-115132380D01*
X152471428Y-115132380D02*
X152709523Y-116132380D01*
X152900000Y-115418095D01*
X153090476Y-116132380D01*
X153328571Y-115132380D01*
X153709523Y-116132380D02*
X153709523Y-115132380D01*
X154280952Y-116132380D01*
X154280952Y-115132380D01*
%TO.C,RIGHT*%
X166306666Y-116132380D02*
X165973333Y-115656190D01*
X165735238Y-116132380D02*
X165735238Y-115132380D01*
X166116190Y-115132380D01*
X166211428Y-115180000D01*
X166259047Y-115227619D01*
X166306666Y-115322857D01*
X166306666Y-115465714D01*
X166259047Y-115560952D01*
X166211428Y-115608571D01*
X166116190Y-115656190D01*
X165735238Y-115656190D01*
X166735238Y-116132380D02*
X166735238Y-115132380D01*
X167735238Y-115180000D02*
X167640000Y-115132380D01*
X167497142Y-115132380D01*
X167354285Y-115180000D01*
X167259047Y-115275238D01*
X167211428Y-115370476D01*
X167163809Y-115560952D01*
X167163809Y-115703809D01*
X167211428Y-115894285D01*
X167259047Y-115989523D01*
X167354285Y-116084761D01*
X167497142Y-116132380D01*
X167592380Y-116132380D01*
X167735238Y-116084761D01*
X167782857Y-116037142D01*
X167782857Y-115703809D01*
X167592380Y-115703809D01*
X168211428Y-116132380D02*
X168211428Y-115132380D01*
X168211428Y-115608571D02*
X168782857Y-115608571D01*
X168782857Y-116132380D02*
X168782857Y-115132380D01*
X169116190Y-115132380D02*
X169687619Y-115132380D01*
X169401904Y-116132380D02*
X169401904Y-115132380D01*
%TO.C,LEFT*%
X136207619Y-116132380D02*
X135731428Y-116132380D01*
X135731428Y-115132380D01*
X136540952Y-115608571D02*
X136874285Y-115608571D01*
X137017142Y-116132380D02*
X136540952Y-116132380D01*
X136540952Y-115132380D01*
X137017142Y-115132380D01*
X137779047Y-115608571D02*
X137445714Y-115608571D01*
X137445714Y-116132380D02*
X137445714Y-115132380D01*
X137921904Y-115132380D01*
X138160000Y-115132380D02*
X138731428Y-115132380D01*
X138445714Y-116132380D02*
X138445714Y-115132380D01*
D12*
%TO.C,DOWN*%
X160000000Y-99080000D02*
X144800000Y-99080000D01*
X144800000Y-114280000D02*
X160000000Y-114280000D01*
X144800000Y-99080000D02*
X144800000Y-114280000D01*
X160000000Y-114280000D02*
X160000000Y-99080000D01*
%TO.C,RIGHT*%
X160040000Y-114280000D02*
X175240000Y-114280000D01*
X175240000Y-99080000D02*
X160040000Y-99080000D01*
X160040000Y-99080000D02*
X160040000Y-114280000D01*
X175240000Y-114280000D02*
X175240000Y-99080000D01*
%TO.C,LEFT*%
X144760000Y-99080000D02*
X129560000Y-99080000D01*
X144760000Y-114280000D02*
X144760000Y-99080000D01*
X129560000Y-114280000D02*
X144760000Y-114280000D01*
X129560000Y-99080000D02*
X129560000Y-114280000D01*
%TO.C,SW2*%
X160000000Y-99040000D02*
X160000000Y-83840000D01*
X160000000Y-83840000D02*
X144800000Y-83840000D01*
X144800000Y-83840000D02*
X144800000Y-99040000D01*
X144800000Y-99040000D02*
X160000000Y-99040000D01*
%TD*%
%LPC*%
D13*
%TO.C,DOWN*%
X146900000Y-106680000D03*
X157900000Y-106680000D03*
D14*
X152400000Y-106680000D03*
%TD*%
D15*
%TO.C,H4*%
X152364707Y-131074155D03*
%TD*%
D13*
%TO.C,RIGHT*%
X162140000Y-106680000D03*
D14*
X167640000Y-106680000D03*
D13*
X173140000Y-106680000D03*
%TD*%
D14*
%TO.C,LEFT*%
X137160000Y-106680000D03*
D13*
X131660000Y-106680000D03*
X142660000Y-106680000D03*
%TD*%
D15*
%TO.C,H1*%
X133843558Y-73801171D03*
%TD*%
%TO.C,H5*%
X122318125Y-109259704D03*
%TD*%
%TO.C,H3*%
X182456486Y-109167060D03*
%TD*%
D14*
%TO.C,SW2*%
X152400000Y-91440000D03*
D13*
X157900000Y-91440000D03*
X146900000Y-91440000D03*
%TD*%
D15*
%TO.C,H2*%
X170841740Y-73872838D03*
%TD*%
D16*
%TO.C,J1*%
X147320000Y-99822000D03*
D17*
X149860000Y-99822000D03*
X152400000Y-99822000D03*
X154940000Y-99822000D03*
X157480000Y-99822000D03*
%TD*%
M02*
