%TF.GenerationSoftware,KiCad,Pcbnew,(6.0.4)*%
%TF.CreationDate,2022-05-01T19:09:37-04:00*%
%TF.ProjectId,odin,6f64696e-2e6b-4696-9361-645f70636258,rev?*%
%TF.SameCoordinates,Original*%
%TF.FileFunction,Legend,Bot*%
%TF.FilePolarity,Positive*%
%FSLAX46Y46*%
G04 Gerber Fmt 4.6, Leading zero omitted, Abs format (unit mm)*
G04 Created by KiCad (PCBNEW (6.0.4)) date 2022-05-01 19:09:37*
%MOMM*%
%LPD*%
G01*
G04 APERTURE LIST*
%ADD10C,0.300000*%
%ADD11C,0.150000*%
%ADD12C,0.120000*%
%ADD13C,1.900000*%
%ADD14C,3.450000*%
%ADD15C,2.200000*%
%ADD16C,3.200000*%
%ADD17R,1.700000X1.700000*%
%ADD18O,1.700000X1.700000*%
G04 APERTURE END LIST*
D10*
X167542857Y-79188571D02*
X167257142Y-79188571D01*
X167114285Y-79260000D01*
X166971428Y-79402857D01*
X166900000Y-79688571D01*
X166900000Y-80188571D01*
X166971428Y-80474285D01*
X167114285Y-80617142D01*
X167257142Y-80688571D01*
X167542857Y-80688571D01*
X167685714Y-80617142D01*
X167828571Y-80474285D01*
X167900000Y-80188571D01*
X167900000Y-79688571D01*
X167828571Y-79402857D01*
X167685714Y-79260000D01*
X167542857Y-79188571D01*
X166257142Y-80688571D02*
X166257142Y-79688571D01*
X166257142Y-79974285D02*
X166185714Y-79831428D01*
X166114285Y-79760000D01*
X165971428Y-79688571D01*
X165828571Y-79688571D01*
X165328571Y-80688571D02*
X165328571Y-79688571D01*
X165328571Y-79188571D02*
X165400000Y-79260000D01*
X165328571Y-79331428D01*
X165257142Y-79260000D01*
X165328571Y-79188571D01*
X165328571Y-79331428D01*
X163971428Y-79688571D02*
X163971428Y-80902857D01*
X164042857Y-81045714D01*
X164114285Y-81117142D01*
X164257142Y-81188571D01*
X164471428Y-81188571D01*
X164614285Y-81117142D01*
X163971428Y-80617142D02*
X164114285Y-80688571D01*
X164400000Y-80688571D01*
X164542857Y-80617142D01*
X164614285Y-80545714D01*
X164685714Y-80402857D01*
X164685714Y-79974285D01*
X164614285Y-79831428D01*
X164542857Y-79760000D01*
X164400000Y-79688571D01*
X164114285Y-79688571D01*
X163971428Y-79760000D01*
X163257142Y-80688571D02*
X163257142Y-79688571D01*
X163257142Y-79188571D02*
X163328571Y-79260000D01*
X163257142Y-79331428D01*
X163185714Y-79260000D01*
X163257142Y-79188571D01*
X163257142Y-79331428D01*
X162542857Y-79688571D02*
X162542857Y-80688571D01*
X162542857Y-79831428D02*
X162471428Y-79760000D01*
X162328571Y-79688571D01*
X162114285Y-79688571D01*
X161971428Y-79760000D01*
X161900000Y-79902857D01*
X161900000Y-80688571D01*
X160542857Y-80688571D02*
X160542857Y-79902857D01*
X160614285Y-79760000D01*
X160757142Y-79688571D01*
X161042857Y-79688571D01*
X161185714Y-79760000D01*
X160542857Y-80617142D02*
X160685714Y-80688571D01*
X161042857Y-80688571D01*
X161185714Y-80617142D01*
X161257142Y-80474285D01*
X161257142Y-80331428D01*
X161185714Y-80188571D01*
X161042857Y-80117142D01*
X160685714Y-80117142D01*
X160542857Y-80045714D01*
X159614285Y-80688571D02*
X159757142Y-80617142D01*
X159828571Y-80474285D01*
X159828571Y-79188571D01*
X157257142Y-80688571D02*
X157257142Y-79188571D01*
X157257142Y-80617142D02*
X157400000Y-80688571D01*
X157685714Y-80688571D01*
X157828571Y-80617142D01*
X157900000Y-80545714D01*
X157971428Y-80402857D01*
X157971428Y-79974285D01*
X157900000Y-79831428D01*
X157828571Y-79760000D01*
X157685714Y-79688571D01*
X157400000Y-79688571D01*
X157257142Y-79760000D01*
X155971428Y-80617142D02*
X156114285Y-80688571D01*
X156400000Y-80688571D01*
X156542857Y-80617142D01*
X156614285Y-80474285D01*
X156614285Y-79902857D01*
X156542857Y-79760000D01*
X156400000Y-79688571D01*
X156114285Y-79688571D01*
X155971428Y-79760000D01*
X155900000Y-79902857D01*
X155900000Y-80045714D01*
X156614285Y-80188571D01*
X155328571Y-80617142D02*
X155185714Y-80688571D01*
X154900000Y-80688571D01*
X154757142Y-80617142D01*
X154685714Y-80474285D01*
X154685714Y-80402857D01*
X154757142Y-80260000D01*
X154900000Y-80188571D01*
X155114285Y-80188571D01*
X155257142Y-80117142D01*
X155328571Y-79974285D01*
X155328571Y-79902857D01*
X155257142Y-79760000D01*
X155114285Y-79688571D01*
X154900000Y-79688571D01*
X154757142Y-79760000D01*
X154042857Y-80688571D02*
X154042857Y-79688571D01*
X154042857Y-79188571D02*
X154114285Y-79260000D01*
X154042857Y-79331428D01*
X153971428Y-79260000D01*
X154042857Y-79188571D01*
X154042857Y-79331428D01*
X152685714Y-79688571D02*
X152685714Y-80902857D01*
X152757142Y-81045714D01*
X152828571Y-81117142D01*
X152971428Y-81188571D01*
X153185714Y-81188571D01*
X153328571Y-81117142D01*
X152685714Y-80617142D02*
X152828571Y-80688571D01*
X153114285Y-80688571D01*
X153257142Y-80617142D01*
X153328571Y-80545714D01*
X153400000Y-80402857D01*
X153400000Y-79974285D01*
X153328571Y-79831428D01*
X153257142Y-79760000D01*
X153114285Y-79688571D01*
X152828571Y-79688571D01*
X152685714Y-79760000D01*
X151971428Y-79688571D02*
X151971428Y-80688571D01*
X151971428Y-79831428D02*
X151900000Y-79760000D01*
X151757142Y-79688571D01*
X151542857Y-79688571D01*
X151400000Y-79760000D01*
X151328571Y-79902857D01*
X151328571Y-80688571D01*
X149185714Y-79188571D02*
X148900000Y-79188571D01*
X148757142Y-79260000D01*
X148614285Y-79402857D01*
X148542857Y-79688571D01*
X148542857Y-80188571D01*
X148614285Y-80474285D01*
X148757142Y-80617142D01*
X148900000Y-80688571D01*
X149185714Y-80688571D01*
X149328571Y-80617142D01*
X149471428Y-80474285D01*
X149542857Y-80188571D01*
X149542857Y-79688571D01*
X149471428Y-79402857D01*
X149328571Y-79260000D01*
X149185714Y-79188571D01*
X147900000Y-80688571D02*
X147900000Y-79688571D01*
X147900000Y-79831428D02*
X147828571Y-79760000D01*
X147685714Y-79688571D01*
X147471428Y-79688571D01*
X147328571Y-79760000D01*
X147257142Y-79902857D01*
X147257142Y-80688571D01*
X147257142Y-79902857D02*
X147185714Y-79760000D01*
X147042857Y-79688571D01*
X146828571Y-79688571D01*
X146685714Y-79760000D01*
X146614285Y-79902857D01*
X146614285Y-80688571D01*
X145900000Y-79688571D02*
X145900000Y-80688571D01*
X145900000Y-79831428D02*
X145828571Y-79760000D01*
X145685714Y-79688571D01*
X145471428Y-79688571D01*
X145328571Y-79760000D01*
X145257142Y-79902857D01*
X145257142Y-80688571D01*
X144542857Y-80688571D02*
X144542857Y-79688571D01*
X144542857Y-79188571D02*
X144614285Y-79260000D01*
X144542857Y-79331428D01*
X144471428Y-79260000D01*
X144542857Y-79188571D01*
X144542857Y-79331428D01*
X143185714Y-80688571D02*
X143185714Y-79902857D01*
X143257142Y-79760000D01*
X143400000Y-79688571D01*
X143685714Y-79688571D01*
X143828571Y-79760000D01*
X143185714Y-80617142D02*
X143328571Y-80688571D01*
X143685714Y-80688571D01*
X143828571Y-80617142D01*
X143900000Y-80474285D01*
X143900000Y-80331428D01*
X143828571Y-80188571D01*
X143685714Y-80117142D01*
X143328571Y-80117142D01*
X143185714Y-80045714D01*
X142471428Y-80688571D02*
X142471428Y-79688571D01*
X142471428Y-79974285D02*
X142400000Y-79831428D01*
X142328571Y-79760000D01*
X142185714Y-79688571D01*
X142042857Y-79688571D01*
X140900000Y-80617142D02*
X141042857Y-80688571D01*
X141328571Y-80688571D01*
X141471428Y-80617142D01*
X141542857Y-80545714D01*
X141614285Y-80402857D01*
X141614285Y-79974285D01*
X141542857Y-79831428D01*
X141471428Y-79760000D01*
X141328571Y-79688571D01*
X141042857Y-79688571D01*
X140900000Y-79760000D01*
X139614285Y-80688571D02*
X139614285Y-79902857D01*
X139685714Y-79760000D01*
X139828571Y-79688571D01*
X140114285Y-79688571D01*
X140257142Y-79760000D01*
X139614285Y-80617142D02*
X139757142Y-80688571D01*
X140114285Y-80688571D01*
X140257142Y-80617142D01*
X140328571Y-80474285D01*
X140328571Y-80331428D01*
X140257142Y-80188571D01*
X140114285Y-80117142D01*
X139757142Y-80117142D01*
X139614285Y-80045714D01*
X138257142Y-80688571D02*
X138257142Y-79188571D01*
X138257142Y-80617142D02*
X138400000Y-80688571D01*
X138685714Y-80688571D01*
X138828571Y-80617142D01*
X138900000Y-80545714D01*
X138971428Y-80402857D01*
X138971428Y-79974285D01*
X138900000Y-79831428D01*
X138828571Y-79760000D01*
X138685714Y-79688571D01*
X138400000Y-79688571D01*
X138257142Y-79760000D01*
X136971428Y-80617142D02*
X137114285Y-80688571D01*
X137400000Y-80688571D01*
X137542857Y-80617142D01*
X137614285Y-80474285D01*
X137614285Y-79902857D01*
X137542857Y-79760000D01*
X137400000Y-79688571D01*
X137114285Y-79688571D01*
X136971428Y-79760000D01*
X136900000Y-79902857D01*
X136900000Y-80045714D01*
X137614285Y-80188571D01*
D11*
X149312380Y-101935595D02*
X150121904Y-101935595D01*
X150217142Y-101983214D01*
X150264761Y-102030833D01*
X150312380Y-102126071D01*
X150312380Y-102316547D01*
X150264761Y-102411785D01*
X150217142Y-102459404D01*
X150121904Y-102507023D01*
X149312380Y-102507023D01*
X146820000Y-102459404D02*
X146772380Y-102364166D01*
X146772380Y-102221309D01*
X146820000Y-102078452D01*
X146915238Y-101983214D01*
X147010476Y-101935595D01*
X147200952Y-101887976D01*
X147343809Y-101887976D01*
X147534285Y-101935595D01*
X147629523Y-101983214D01*
X147724761Y-102078452D01*
X147772380Y-102221309D01*
X147772380Y-102316547D01*
X147724761Y-102459404D01*
X147677142Y-102507023D01*
X147343809Y-102507023D01*
X147343809Y-102316547D01*
X147772380Y-102935595D02*
X146772380Y-102935595D01*
X147772380Y-103507023D01*
X146772380Y-103507023D01*
X147772380Y-103983214D02*
X146772380Y-103983214D01*
X146772380Y-104221309D01*
X146820000Y-104364166D01*
X146915238Y-104459404D01*
X147010476Y-104507023D01*
X147200952Y-104554642D01*
X147343809Y-104554642D01*
X147534285Y-104507023D01*
X147629523Y-104459404D01*
X147724761Y-104364166D01*
X147772380Y-104221309D01*
X147772380Y-103983214D01*
X155392380Y-101935595D02*
X154392380Y-101935595D01*
X154392380Y-102173690D01*
X154440000Y-102316547D01*
X154535238Y-102411785D01*
X154630476Y-102459404D01*
X154820952Y-102507023D01*
X154963809Y-102507023D01*
X155154285Y-102459404D01*
X155249523Y-102411785D01*
X155344761Y-102316547D01*
X155392380Y-102173690D01*
X155392380Y-101935595D01*
X157932380Y-102507023D02*
X157456190Y-102173690D01*
X157932380Y-101935595D02*
X156932380Y-101935595D01*
X156932380Y-102316547D01*
X156980000Y-102411785D01*
X157027619Y-102459404D01*
X157122857Y-102507023D01*
X157265714Y-102507023D01*
X157360952Y-102459404D01*
X157408571Y-102411785D01*
X157456190Y-102316547D01*
X157456190Y-101935595D01*
X152852380Y-102411785D02*
X152852380Y-101935595D01*
X151852380Y-101935595D01*
%TO.C,J1*%
X144442380Y-99488666D02*
X145156666Y-99488666D01*
X145299523Y-99441047D01*
X145394761Y-99345809D01*
X145442380Y-99202952D01*
X145442380Y-99107714D01*
X145442380Y-100488666D02*
X145442380Y-99917238D01*
X145442380Y-100202952D02*
X144442380Y-100202952D01*
X144585238Y-100107714D01*
X144680476Y-100012476D01*
X144728095Y-99917238D01*
D12*
X147320000Y-98492000D02*
X145990000Y-98492000D01*
X158810000Y-98492000D02*
X158810000Y-101152000D01*
X148590000Y-98492000D02*
X148590000Y-101152000D01*
X145990000Y-98492000D02*
X145990000Y-99822000D01*
X148590000Y-101152000D02*
X158810000Y-101152000D01*
X148590000Y-98492000D02*
X158810000Y-98492000D01*
%TD*%
%LPC*%
D13*
%TO.C,DOWN*%
X146900000Y-106680000D03*
X157900000Y-106680000D03*
D14*
X152400000Y-106680000D03*
D15*
X152400000Y-112580000D03*
X147400000Y-110480000D03*
%TD*%
D16*
%TO.C,H4*%
X152364707Y-131074155D03*
%TD*%
D13*
%TO.C,RIGHT*%
X162140000Y-106680000D03*
D14*
X167640000Y-106680000D03*
D13*
X173140000Y-106680000D03*
D15*
X167640000Y-112580000D03*
X162640000Y-110480000D03*
%TD*%
D14*
%TO.C,LEFT*%
X137160000Y-106680000D03*
D13*
X131660000Y-106680000D03*
X142660000Y-106680000D03*
D15*
X137160000Y-112580000D03*
X132160000Y-110480000D03*
%TD*%
D16*
%TO.C,H1*%
X133843558Y-73801171D03*
%TD*%
%TO.C,H5*%
X122318125Y-109259704D03*
%TD*%
%TO.C,H3*%
X182456486Y-109167060D03*
%TD*%
D14*
%TO.C,SW2*%
X152400000Y-91440000D03*
D13*
X157900000Y-91440000D03*
X146900000Y-91440000D03*
D15*
X152400000Y-97340000D03*
X147400000Y-95240000D03*
%TD*%
D16*
%TO.C,H2*%
X170841740Y-73872838D03*
%TD*%
D17*
%TO.C,J1*%
X147320000Y-99822000D03*
D18*
X149860000Y-99822000D03*
X152400000Y-99822000D03*
X154940000Y-99822000D03*
X157480000Y-99822000D03*
%TD*%
M02*
