%FSLAX45Y45*%
G04 Gerber Fmt 4.5, Leading zero omitted, Abs format (unit mm)*
G04 Created by KiCad (PCBNEW (6.0.4)) date 2022-05-01 19:10:59*
%MOMM*%
%LPD*%
G01*
G04 APERTURE LIST*
%TA.AperFunction,Profile*%
%ADD10C,0.100000*%
%TD*%
%ADD11C,0.200000*%
%ADD12C,0.190000*%
%ADD13C,0.320000*%
%ADD14C,0.345000*%
G04 APERTURE END LIST*
D10*
X18911029Y-9909781D02*
G75*
G03*
X18911029Y-9909781I-3650000J0D01*
G01*
D11*
D12*
X13071000Y-10573000D02*
X13261000Y-10763000D01*
X13261000Y-10573000D02*
X13071000Y-10763000D01*
X14171000Y-10573000D02*
X14361000Y-10763000D01*
X14361000Y-10573000D02*
X14171000Y-10763000D01*
X14595000Y-9049000D02*
X14785000Y-9239000D01*
X14785000Y-9049000D02*
X14595000Y-9239000D01*
X14595000Y-10573000D02*
X14785000Y-10763000D01*
X14785000Y-10573000D02*
X14595000Y-10763000D01*
X15695000Y-9049000D02*
X15885000Y-9239000D01*
X15885000Y-9049000D02*
X15695000Y-9239000D01*
X15695000Y-10573000D02*
X15885000Y-10763000D01*
X15885000Y-10573000D02*
X15695000Y-10763000D01*
X16119000Y-10573000D02*
X16309000Y-10763000D01*
X16309000Y-10573000D02*
X16119000Y-10763000D01*
X17219000Y-10573000D02*
X17409000Y-10763000D01*
X17409000Y-10573000D02*
X17219000Y-10763000D01*
D13*
X12391812Y-10925970D02*
G75*
G03*
X12391812Y-10925970I-160000J0D01*
G01*
X13544356Y-7380117D02*
G75*
G03*
X13544356Y-7380117I-160000J0D01*
G01*
X15396471Y-13107415D02*
G75*
G03*
X15396471Y-13107415I-160000J0D01*
G01*
X17244174Y-7387284D02*
G75*
G03*
X17244174Y-7387284I-160000J0D01*
G01*
X18405649Y-10916706D02*
G75*
G03*
X18405649Y-10916706I-160000J0D01*
G01*
D14*
X13716000Y-10495500D02*
X13716000Y-10840500D01*
X13543500Y-10668000D02*
X13888500Y-10668000D01*
X15240000Y-8971500D02*
X15240000Y-9316500D01*
X15067500Y-9144000D02*
X15412500Y-9144000D01*
X15240000Y-10495500D02*
X15240000Y-10840500D01*
X15067500Y-10668000D02*
X15412500Y-10668000D01*
X16764000Y-10495500D02*
X16764000Y-10840500D01*
X16591500Y-10668000D02*
X16936500Y-10668000D01*
D11*
X11863648Y-13875257D02*
X11863648Y-13675257D01*
X11911267Y-13675257D01*
X11939839Y-13684781D01*
X11958886Y-13703829D01*
X11968410Y-13722877D01*
X11977934Y-13760972D01*
X11977934Y-13789543D01*
X11968410Y-13827638D01*
X11958886Y-13846686D01*
X11939839Y-13865734D01*
X11911267Y-13875257D01*
X11863648Y-13875257D01*
X12063648Y-13875257D02*
X12063648Y-13741924D01*
X12063648Y-13780019D02*
X12073172Y-13760972D01*
X12082696Y-13751448D01*
X12101744Y-13741924D01*
X12120791Y-13741924D01*
X12187458Y-13875257D02*
X12187458Y-13741924D01*
X12187458Y-13675257D02*
X12177934Y-13684781D01*
X12187458Y-13694305D01*
X12196982Y-13684781D01*
X12187458Y-13675257D01*
X12187458Y-13694305D01*
X12311267Y-13875257D02*
X12292220Y-13865734D01*
X12282696Y-13846686D01*
X12282696Y-13675257D01*
X12416029Y-13875257D02*
X12396982Y-13865734D01*
X12387458Y-13846686D01*
X12387458Y-13675257D01*
X12644601Y-13875257D02*
X12644601Y-13675257D01*
X12711267Y-13818115D01*
X12777934Y-13675257D01*
X12777934Y-13875257D01*
X12958886Y-13875257D02*
X12958886Y-13770496D01*
X12949363Y-13751448D01*
X12930315Y-13741924D01*
X12892220Y-13741924D01*
X12873172Y-13751448D01*
X12958886Y-13865734D02*
X12939839Y-13875257D01*
X12892220Y-13875257D01*
X12873172Y-13865734D01*
X12863648Y-13846686D01*
X12863648Y-13827638D01*
X12873172Y-13808591D01*
X12892220Y-13799067D01*
X12939839Y-13799067D01*
X12958886Y-13789543D01*
X13054125Y-13741924D02*
X13054125Y-13941924D01*
X13054125Y-13751448D02*
X13073172Y-13741924D01*
X13111267Y-13741924D01*
X13130315Y-13751448D01*
X13139839Y-13760972D01*
X13149363Y-13780019D01*
X13149363Y-13837162D01*
X13139839Y-13856210D01*
X13130315Y-13865734D01*
X13111267Y-13875257D01*
X13073172Y-13875257D01*
X13054125Y-13865734D01*
X13235077Y-13856210D02*
X13244601Y-13865734D01*
X13235077Y-13875257D01*
X13225553Y-13865734D01*
X13235077Y-13856210D01*
X13235077Y-13875257D01*
X13235077Y-13751448D02*
X13244601Y-13760972D01*
X13235077Y-13770496D01*
X13225553Y-13760972D01*
X13235077Y-13751448D01*
X13235077Y-13770496D01*
D12*
X11416029Y-14109781D02*
X11606029Y-14299781D01*
X11606029Y-14109781D02*
X11416029Y-14299781D01*
D11*
X11968410Y-14295257D02*
X11854125Y-14295257D01*
X11911267Y-14295257D02*
X11911267Y-14095257D01*
X11892220Y-14123829D01*
X11873172Y-14142877D01*
X11854125Y-14152400D01*
X12054125Y-14276210D02*
X12063648Y-14285734D01*
X12054125Y-14295257D01*
X12044601Y-14285734D01*
X12054125Y-14276210D01*
X12054125Y-14295257D01*
X12158886Y-14295257D02*
X12196982Y-14295257D01*
X12216029Y-14285734D01*
X12225553Y-14276210D01*
X12244601Y-14247638D01*
X12254125Y-14209543D01*
X12254125Y-14133353D01*
X12244601Y-14114305D01*
X12235077Y-14104781D01*
X12216029Y-14095257D01*
X12177934Y-14095257D01*
X12158886Y-14104781D01*
X12149363Y-14114305D01*
X12139839Y-14133353D01*
X12139839Y-14180972D01*
X12149363Y-14200019D01*
X12158886Y-14209543D01*
X12177934Y-14219067D01*
X12216029Y-14219067D01*
X12235077Y-14209543D01*
X12244601Y-14200019D01*
X12254125Y-14180972D01*
X12377934Y-14095257D02*
X12396982Y-14095257D01*
X12416029Y-14104781D01*
X12425553Y-14114305D01*
X12435077Y-14133353D01*
X12444601Y-14171448D01*
X12444601Y-14219067D01*
X12435077Y-14257162D01*
X12425553Y-14276210D01*
X12416029Y-14285734D01*
X12396982Y-14295257D01*
X12377934Y-14295257D01*
X12358886Y-14285734D01*
X12349363Y-14276210D01*
X12339839Y-14257162D01*
X12330315Y-14219067D01*
X12330315Y-14171448D01*
X12339839Y-14133353D01*
X12349363Y-14114305D01*
X12358886Y-14104781D01*
X12377934Y-14095257D01*
X12568410Y-14095257D02*
X12587458Y-14095257D01*
X12606505Y-14104781D01*
X12616029Y-14114305D01*
X12625553Y-14133353D01*
X12635077Y-14171448D01*
X12635077Y-14219067D01*
X12625553Y-14257162D01*
X12616029Y-14276210D01*
X12606505Y-14285734D01*
X12587458Y-14295257D01*
X12568410Y-14295257D01*
X12549363Y-14285734D01*
X12539839Y-14276210D01*
X12530315Y-14257162D01*
X12520791Y-14219067D01*
X12520791Y-14171448D01*
X12530315Y-14133353D01*
X12539839Y-14114305D01*
X12549363Y-14104781D01*
X12568410Y-14095257D01*
X12720791Y-14295257D02*
X12720791Y-14161924D01*
X12720791Y-14180972D02*
X12730315Y-14171448D01*
X12749363Y-14161924D01*
X12777934Y-14161924D01*
X12796982Y-14171448D01*
X12806505Y-14190496D01*
X12806505Y-14295257D01*
X12806505Y-14190496D02*
X12816029Y-14171448D01*
X12835077Y-14161924D01*
X12863648Y-14161924D01*
X12882696Y-14171448D01*
X12892220Y-14190496D01*
X12892220Y-14295257D01*
X12987458Y-14295257D02*
X12987458Y-14161924D01*
X12987458Y-14180972D02*
X12996982Y-14171448D01*
X13016029Y-14161924D01*
X13044601Y-14161924D01*
X13063648Y-14171448D01*
X13073172Y-14190496D01*
X13073172Y-14295257D01*
X13073172Y-14190496D02*
X13082696Y-14171448D01*
X13101744Y-14161924D01*
X13130315Y-14161924D01*
X13149363Y-14171448D01*
X13158886Y-14190496D01*
X13158886Y-14295257D01*
X13549363Y-14085734D02*
X13377934Y-14342877D01*
X13806505Y-14095257D02*
X13825553Y-14095257D01*
X13844601Y-14104781D01*
X13854125Y-14114305D01*
X13863648Y-14133353D01*
X13873172Y-14171448D01*
X13873172Y-14219067D01*
X13863648Y-14257162D01*
X13854125Y-14276210D01*
X13844601Y-14285734D01*
X13825553Y-14295257D01*
X13806505Y-14295257D01*
X13787458Y-14285734D01*
X13777934Y-14276210D01*
X13768410Y-14257162D01*
X13758886Y-14219067D01*
X13758886Y-14171448D01*
X13768410Y-14133353D01*
X13777934Y-14114305D01*
X13787458Y-14104781D01*
X13806505Y-14095257D01*
X13958886Y-14276210D02*
X13968410Y-14285734D01*
X13958886Y-14295257D01*
X13949363Y-14285734D01*
X13958886Y-14276210D01*
X13958886Y-14295257D01*
X14092220Y-14095257D02*
X14111267Y-14095257D01*
X14130315Y-14104781D01*
X14139839Y-14114305D01*
X14149363Y-14133353D01*
X14158886Y-14171448D01*
X14158886Y-14219067D01*
X14149363Y-14257162D01*
X14139839Y-14276210D01*
X14130315Y-14285734D01*
X14111267Y-14295257D01*
X14092220Y-14295257D01*
X14073172Y-14285734D01*
X14063648Y-14276210D01*
X14054125Y-14257162D01*
X14044601Y-14219067D01*
X14044601Y-14171448D01*
X14054125Y-14133353D01*
X14063648Y-14114305D01*
X14073172Y-14104781D01*
X14092220Y-14095257D01*
X14225553Y-14095257D02*
X14358886Y-14095257D01*
X14273172Y-14295257D01*
X14520791Y-14161924D02*
X14520791Y-14295257D01*
X14473172Y-14085734D02*
X14425553Y-14228591D01*
X14549363Y-14228591D01*
X14654125Y-14180972D02*
X14635077Y-14171448D01*
X14625553Y-14161924D01*
X14616029Y-14142877D01*
X14616029Y-14133353D01*
X14625553Y-14114305D01*
X14635077Y-14104781D01*
X14654125Y-14095257D01*
X14692220Y-14095257D01*
X14711267Y-14104781D01*
X14720791Y-14114305D01*
X14730315Y-14133353D01*
X14730315Y-14142877D01*
X14720791Y-14161924D01*
X14711267Y-14171448D01*
X14692220Y-14180972D01*
X14654125Y-14180972D01*
X14635077Y-14190496D01*
X14625553Y-14200019D01*
X14616029Y-14219067D01*
X14616029Y-14257162D01*
X14625553Y-14276210D01*
X14635077Y-14285734D01*
X14654125Y-14295257D01*
X14692220Y-14295257D01*
X14711267Y-14285734D01*
X14720791Y-14276210D01*
X14730315Y-14257162D01*
X14730315Y-14219067D01*
X14720791Y-14200019D01*
X14711267Y-14190496D01*
X14692220Y-14180972D01*
X14806505Y-14095257D02*
X14806505Y-14133353D01*
X14882696Y-14095257D02*
X14882696Y-14133353D01*
X15177934Y-14371448D02*
X15168410Y-14361924D01*
X15149363Y-14333353D01*
X15139839Y-14314305D01*
X15130315Y-14285734D01*
X15120791Y-14238115D01*
X15120791Y-14200019D01*
X15130315Y-14152400D01*
X15139839Y-14123829D01*
X15149363Y-14104781D01*
X15168410Y-14076210D01*
X15177934Y-14066686D01*
X15282696Y-14180972D02*
X15263648Y-14171448D01*
X15254125Y-14161924D01*
X15244601Y-14142877D01*
X15244601Y-14133353D01*
X15254125Y-14114305D01*
X15263648Y-14104781D01*
X15282696Y-14095257D01*
X15320791Y-14095257D01*
X15339839Y-14104781D01*
X15349363Y-14114305D01*
X15358886Y-14133353D01*
X15358886Y-14142877D01*
X15349363Y-14161924D01*
X15339839Y-14171448D01*
X15320791Y-14180972D01*
X15282696Y-14180972D01*
X15263648Y-14190496D01*
X15254125Y-14200019D01*
X15244601Y-14219067D01*
X15244601Y-14257162D01*
X15254125Y-14276210D01*
X15263648Y-14285734D01*
X15282696Y-14295257D01*
X15320791Y-14295257D01*
X15339839Y-14285734D01*
X15349363Y-14276210D01*
X15358886Y-14257162D01*
X15358886Y-14219067D01*
X15349363Y-14200019D01*
X15339839Y-14190496D01*
X15320791Y-14180972D01*
X15596982Y-14295257D02*
X15596982Y-14095257D01*
X15682696Y-14295257D02*
X15682696Y-14190496D01*
X15673172Y-14171448D01*
X15654125Y-14161924D01*
X15625553Y-14161924D01*
X15606505Y-14171448D01*
X15596982Y-14180972D01*
X15806505Y-14295257D02*
X15787458Y-14285734D01*
X15777934Y-14276210D01*
X15768410Y-14257162D01*
X15768410Y-14200019D01*
X15777934Y-14180972D01*
X15787458Y-14171448D01*
X15806505Y-14161924D01*
X15835077Y-14161924D01*
X15854125Y-14171448D01*
X15863648Y-14180972D01*
X15873172Y-14200019D01*
X15873172Y-14257162D01*
X15863648Y-14276210D01*
X15854125Y-14285734D01*
X15835077Y-14295257D01*
X15806505Y-14295257D01*
X15987458Y-14295257D02*
X15968410Y-14285734D01*
X15958886Y-14266686D01*
X15958886Y-14095257D01*
X16139839Y-14285734D02*
X16120791Y-14295257D01*
X16082696Y-14295257D01*
X16063648Y-14285734D01*
X16054125Y-14266686D01*
X16054125Y-14190496D01*
X16063648Y-14171448D01*
X16082696Y-14161924D01*
X16120791Y-14161924D01*
X16139839Y-14171448D01*
X16149363Y-14190496D01*
X16149363Y-14209543D01*
X16054125Y-14228591D01*
X16225553Y-14285734D02*
X16244601Y-14295257D01*
X16282696Y-14295257D01*
X16301744Y-14285734D01*
X16311267Y-14266686D01*
X16311267Y-14257162D01*
X16301744Y-14238115D01*
X16282696Y-14228591D01*
X16254125Y-14228591D01*
X16235077Y-14219067D01*
X16225553Y-14200019D01*
X16225553Y-14190496D01*
X16235077Y-14171448D01*
X16254125Y-14161924D01*
X16282696Y-14161924D01*
X16301744Y-14171448D01*
X16377934Y-14371448D02*
X16387458Y-14361924D01*
X16406505Y-14333353D01*
X16416029Y-14314305D01*
X16425553Y-14285734D01*
X16435077Y-14238115D01*
X16435077Y-14200019D01*
X16425553Y-14152400D01*
X16416029Y-14123829D01*
X16406505Y-14104781D01*
X16387458Y-14076210D01*
X16377934Y-14066686D01*
X16739839Y-14371448D02*
X16730315Y-14361924D01*
X16711267Y-14333353D01*
X16701744Y-14314305D01*
X16692220Y-14285734D01*
X16682696Y-14238115D01*
X16682696Y-14200019D01*
X16692220Y-14152400D01*
X16701744Y-14123829D01*
X16711267Y-14104781D01*
X16730315Y-14076210D01*
X16739839Y-14066686D01*
X16816029Y-14161924D02*
X16816029Y-14295257D01*
X16816029Y-14180972D02*
X16825553Y-14171448D01*
X16844601Y-14161924D01*
X16873172Y-14161924D01*
X16892220Y-14171448D01*
X16901744Y-14190496D01*
X16901744Y-14295257D01*
X17025553Y-14295257D02*
X17006506Y-14285734D01*
X16996982Y-14276210D01*
X16987458Y-14257162D01*
X16987458Y-14200019D01*
X16996982Y-14180972D01*
X17006506Y-14171448D01*
X17025553Y-14161924D01*
X17054125Y-14161924D01*
X17073172Y-14171448D01*
X17082696Y-14180972D01*
X17092220Y-14200019D01*
X17092220Y-14257162D01*
X17082696Y-14276210D01*
X17073172Y-14285734D01*
X17054125Y-14295257D01*
X17025553Y-14295257D01*
X17149363Y-14161924D02*
X17225553Y-14161924D01*
X17177934Y-14095257D02*
X17177934Y-14266686D01*
X17187458Y-14285734D01*
X17206506Y-14295257D01*
X17225553Y-14295257D01*
X17444601Y-14161924D02*
X17444601Y-14361924D01*
X17444601Y-14171448D02*
X17463648Y-14161924D01*
X17501744Y-14161924D01*
X17520791Y-14171448D01*
X17530315Y-14180972D01*
X17539839Y-14200019D01*
X17539839Y-14257162D01*
X17530315Y-14276210D01*
X17520791Y-14285734D01*
X17501744Y-14295257D01*
X17463648Y-14295257D01*
X17444601Y-14285734D01*
X17654125Y-14295257D02*
X17635077Y-14285734D01*
X17625553Y-14266686D01*
X17625553Y-14095257D01*
X17816029Y-14295257D02*
X17816029Y-14190496D01*
X17806506Y-14171448D01*
X17787458Y-14161924D01*
X17749363Y-14161924D01*
X17730315Y-14171448D01*
X17816029Y-14285734D02*
X17796982Y-14295257D01*
X17749363Y-14295257D01*
X17730315Y-14285734D01*
X17720791Y-14266686D01*
X17720791Y-14247638D01*
X17730315Y-14228591D01*
X17749363Y-14219067D01*
X17796982Y-14219067D01*
X17816029Y-14209543D01*
X17882696Y-14161924D02*
X17958887Y-14161924D01*
X17911267Y-14095257D02*
X17911267Y-14266686D01*
X17920791Y-14285734D01*
X17939839Y-14295257D01*
X17958887Y-14295257D01*
X18101744Y-14285734D02*
X18082696Y-14295257D01*
X18044601Y-14295257D01*
X18025553Y-14285734D01*
X18016029Y-14266686D01*
X18016029Y-14190496D01*
X18025553Y-14171448D01*
X18044601Y-14161924D01*
X18082696Y-14161924D01*
X18101744Y-14171448D01*
X18111267Y-14190496D01*
X18111267Y-14209543D01*
X18016029Y-14228591D01*
X18282696Y-14295257D02*
X18282696Y-14095257D01*
X18282696Y-14285734D02*
X18263648Y-14295257D01*
X18225553Y-14295257D01*
X18206506Y-14285734D01*
X18196982Y-14276210D01*
X18187458Y-14257162D01*
X18187458Y-14200019D01*
X18196982Y-14180972D01*
X18206506Y-14171448D01*
X18225553Y-14161924D01*
X18263648Y-14161924D01*
X18282696Y-14171448D01*
X18358887Y-14371448D02*
X18368410Y-14361924D01*
X18387458Y-14333353D01*
X18396982Y-14314305D01*
X18406506Y-14285734D01*
X18416029Y-14238115D01*
X18416029Y-14200019D01*
X18406506Y-14152400D01*
X18396982Y-14123829D01*
X18387458Y-14104781D01*
X18368410Y-14076210D01*
X18358887Y-14066686D01*
X11606029Y-14514781D02*
G75*
G03*
X11606029Y-14514781I-100000J0D01*
G01*
X11844601Y-14405257D02*
X11968410Y-14405257D01*
X11901744Y-14481448D01*
X11930315Y-14481448D01*
X11949363Y-14490972D01*
X11958886Y-14500496D01*
X11968410Y-14519543D01*
X11968410Y-14567162D01*
X11958886Y-14586210D01*
X11949363Y-14595734D01*
X11930315Y-14605257D01*
X11873172Y-14605257D01*
X11854125Y-14595734D01*
X11844601Y-14586210D01*
X12054125Y-14586210D02*
X12063648Y-14595734D01*
X12054125Y-14605257D01*
X12044601Y-14595734D01*
X12054125Y-14586210D01*
X12054125Y-14605257D01*
X12139839Y-14424305D02*
X12149363Y-14414781D01*
X12168410Y-14405257D01*
X12216029Y-14405257D01*
X12235077Y-14414781D01*
X12244601Y-14424305D01*
X12254125Y-14443353D01*
X12254125Y-14462400D01*
X12244601Y-14490972D01*
X12130315Y-14605257D01*
X12254125Y-14605257D01*
X12377934Y-14405257D02*
X12396982Y-14405257D01*
X12416029Y-14414781D01*
X12425553Y-14424305D01*
X12435077Y-14443353D01*
X12444601Y-14481448D01*
X12444601Y-14529067D01*
X12435077Y-14567162D01*
X12425553Y-14586210D01*
X12416029Y-14595734D01*
X12396982Y-14605257D01*
X12377934Y-14605257D01*
X12358886Y-14595734D01*
X12349363Y-14586210D01*
X12339839Y-14567162D01*
X12330315Y-14529067D01*
X12330315Y-14481448D01*
X12339839Y-14443353D01*
X12349363Y-14424305D01*
X12358886Y-14414781D01*
X12377934Y-14405257D01*
X12568410Y-14405257D02*
X12587458Y-14405257D01*
X12606505Y-14414781D01*
X12616029Y-14424305D01*
X12625553Y-14443353D01*
X12635077Y-14481448D01*
X12635077Y-14529067D01*
X12625553Y-14567162D01*
X12616029Y-14586210D01*
X12606505Y-14595734D01*
X12587458Y-14605257D01*
X12568410Y-14605257D01*
X12549363Y-14595734D01*
X12539839Y-14586210D01*
X12530315Y-14567162D01*
X12520791Y-14529067D01*
X12520791Y-14481448D01*
X12530315Y-14443353D01*
X12539839Y-14424305D01*
X12549363Y-14414781D01*
X12568410Y-14405257D01*
X12720791Y-14605257D02*
X12720791Y-14471924D01*
X12720791Y-14490972D02*
X12730315Y-14481448D01*
X12749363Y-14471924D01*
X12777934Y-14471924D01*
X12796982Y-14481448D01*
X12806505Y-14500496D01*
X12806505Y-14605257D01*
X12806505Y-14500496D02*
X12816029Y-14481448D01*
X12835077Y-14471924D01*
X12863648Y-14471924D01*
X12882696Y-14481448D01*
X12892220Y-14500496D01*
X12892220Y-14605257D01*
X12987458Y-14605257D02*
X12987458Y-14471924D01*
X12987458Y-14490972D02*
X12996982Y-14481448D01*
X13016029Y-14471924D01*
X13044601Y-14471924D01*
X13063648Y-14481448D01*
X13073172Y-14500496D01*
X13073172Y-14605257D01*
X13073172Y-14500496D02*
X13082696Y-14481448D01*
X13101744Y-14471924D01*
X13130315Y-14471924D01*
X13149363Y-14481448D01*
X13158886Y-14500496D01*
X13158886Y-14605257D01*
X13549363Y-14395734D02*
X13377934Y-14652877D01*
X13806505Y-14405257D02*
X13825553Y-14405257D01*
X13844601Y-14414781D01*
X13854125Y-14424305D01*
X13863648Y-14443353D01*
X13873172Y-14481448D01*
X13873172Y-14529067D01*
X13863648Y-14567162D01*
X13854125Y-14586210D01*
X13844601Y-14595734D01*
X13825553Y-14605257D01*
X13806505Y-14605257D01*
X13787458Y-14595734D01*
X13777934Y-14586210D01*
X13768410Y-14567162D01*
X13758886Y-14529067D01*
X13758886Y-14481448D01*
X13768410Y-14443353D01*
X13777934Y-14424305D01*
X13787458Y-14414781D01*
X13806505Y-14405257D01*
X13958886Y-14586210D02*
X13968410Y-14595734D01*
X13958886Y-14605257D01*
X13949363Y-14595734D01*
X13958886Y-14586210D01*
X13958886Y-14605257D01*
X14158886Y-14605257D02*
X14044601Y-14605257D01*
X14101744Y-14605257D02*
X14101744Y-14405257D01*
X14082696Y-14433829D01*
X14063648Y-14452877D01*
X14044601Y-14462400D01*
X14235077Y-14424305D02*
X14244601Y-14414781D01*
X14263648Y-14405257D01*
X14311267Y-14405257D01*
X14330315Y-14414781D01*
X14339839Y-14424305D01*
X14349363Y-14443353D01*
X14349363Y-14462400D01*
X14339839Y-14490972D01*
X14225553Y-14605257D01*
X14349363Y-14605257D01*
X14520791Y-14405257D02*
X14482696Y-14405257D01*
X14463648Y-14414781D01*
X14454125Y-14424305D01*
X14435077Y-14452877D01*
X14425553Y-14490972D01*
X14425553Y-14567162D01*
X14435077Y-14586210D01*
X14444601Y-14595734D01*
X14463648Y-14605257D01*
X14501744Y-14605257D01*
X14520791Y-14595734D01*
X14530315Y-14586210D01*
X14539839Y-14567162D01*
X14539839Y-14519543D01*
X14530315Y-14500496D01*
X14520791Y-14490972D01*
X14501744Y-14481448D01*
X14463648Y-14481448D01*
X14444601Y-14490972D01*
X14435077Y-14500496D01*
X14425553Y-14519543D01*
X14663648Y-14405257D02*
X14682696Y-14405257D01*
X14701744Y-14414781D01*
X14711267Y-14424305D01*
X14720791Y-14443353D01*
X14730315Y-14481448D01*
X14730315Y-14529067D01*
X14720791Y-14567162D01*
X14711267Y-14586210D01*
X14701744Y-14595734D01*
X14682696Y-14605257D01*
X14663648Y-14605257D01*
X14644601Y-14595734D01*
X14635077Y-14586210D01*
X14625553Y-14567162D01*
X14616029Y-14529067D01*
X14616029Y-14481448D01*
X14625553Y-14443353D01*
X14635077Y-14424305D01*
X14644601Y-14414781D01*
X14663648Y-14405257D01*
X14806505Y-14405257D02*
X14806505Y-14443353D01*
X14882696Y-14405257D02*
X14882696Y-14443353D01*
X15177934Y-14681448D02*
X15168410Y-14671924D01*
X15149363Y-14643353D01*
X15139839Y-14624305D01*
X15130315Y-14595734D01*
X15120791Y-14548115D01*
X15120791Y-14510019D01*
X15130315Y-14462400D01*
X15139839Y-14433829D01*
X15149363Y-14414781D01*
X15168410Y-14386210D01*
X15177934Y-14376686D01*
X15349363Y-14405257D02*
X15254125Y-14405257D01*
X15244601Y-14500496D01*
X15254125Y-14490972D01*
X15273172Y-14481448D01*
X15320791Y-14481448D01*
X15339839Y-14490972D01*
X15349363Y-14500496D01*
X15358886Y-14519543D01*
X15358886Y-14567162D01*
X15349363Y-14586210D01*
X15339839Y-14595734D01*
X15320791Y-14605257D01*
X15273172Y-14605257D01*
X15254125Y-14595734D01*
X15244601Y-14586210D01*
X15596982Y-14605257D02*
X15596982Y-14405257D01*
X15682696Y-14605257D02*
X15682696Y-14500496D01*
X15673172Y-14481448D01*
X15654125Y-14471924D01*
X15625553Y-14471924D01*
X15606505Y-14481448D01*
X15596982Y-14490972D01*
X15806505Y-14605257D02*
X15787458Y-14595734D01*
X15777934Y-14586210D01*
X15768410Y-14567162D01*
X15768410Y-14510019D01*
X15777934Y-14490972D01*
X15787458Y-14481448D01*
X15806505Y-14471924D01*
X15835077Y-14471924D01*
X15854125Y-14481448D01*
X15863648Y-14490972D01*
X15873172Y-14510019D01*
X15873172Y-14567162D01*
X15863648Y-14586210D01*
X15854125Y-14595734D01*
X15835077Y-14605257D01*
X15806505Y-14605257D01*
X15987458Y-14605257D02*
X15968410Y-14595734D01*
X15958886Y-14576686D01*
X15958886Y-14405257D01*
X16139839Y-14595734D02*
X16120791Y-14605257D01*
X16082696Y-14605257D01*
X16063648Y-14595734D01*
X16054125Y-14576686D01*
X16054125Y-14500496D01*
X16063648Y-14481448D01*
X16082696Y-14471924D01*
X16120791Y-14471924D01*
X16139839Y-14481448D01*
X16149363Y-14500496D01*
X16149363Y-14519543D01*
X16054125Y-14538591D01*
X16225553Y-14595734D02*
X16244601Y-14605257D01*
X16282696Y-14605257D01*
X16301744Y-14595734D01*
X16311267Y-14576686D01*
X16311267Y-14567162D01*
X16301744Y-14548115D01*
X16282696Y-14538591D01*
X16254125Y-14538591D01*
X16235077Y-14529067D01*
X16225553Y-14510019D01*
X16225553Y-14500496D01*
X16235077Y-14481448D01*
X16254125Y-14471924D01*
X16282696Y-14471924D01*
X16301744Y-14481448D01*
X16377934Y-14681448D02*
X16387458Y-14671924D01*
X16406505Y-14643353D01*
X16416029Y-14624305D01*
X16425553Y-14595734D01*
X16435077Y-14548115D01*
X16435077Y-14510019D01*
X16425553Y-14462400D01*
X16416029Y-14433829D01*
X16406505Y-14414781D01*
X16387458Y-14386210D01*
X16377934Y-14376686D01*
X16739839Y-14681448D02*
X16730315Y-14671924D01*
X16711267Y-14643353D01*
X16701744Y-14624305D01*
X16692220Y-14595734D01*
X16682696Y-14548115D01*
X16682696Y-14510019D01*
X16692220Y-14462400D01*
X16701744Y-14433829D01*
X16711267Y-14414781D01*
X16730315Y-14386210D01*
X16739839Y-14376686D01*
X16816029Y-14471924D02*
X16816029Y-14605257D01*
X16816029Y-14490972D02*
X16825553Y-14481448D01*
X16844601Y-14471924D01*
X16873172Y-14471924D01*
X16892220Y-14481448D01*
X16901744Y-14500496D01*
X16901744Y-14605257D01*
X17025553Y-14605257D02*
X17006506Y-14595734D01*
X16996982Y-14586210D01*
X16987458Y-14567162D01*
X16987458Y-14510019D01*
X16996982Y-14490972D01*
X17006506Y-14481448D01*
X17025553Y-14471924D01*
X17054125Y-14471924D01*
X17073172Y-14481448D01*
X17082696Y-14490972D01*
X17092220Y-14510019D01*
X17092220Y-14567162D01*
X17082696Y-14586210D01*
X17073172Y-14595734D01*
X17054125Y-14605257D01*
X17025553Y-14605257D01*
X17149363Y-14471924D02*
X17225553Y-14471924D01*
X17177934Y-14405257D02*
X17177934Y-14576686D01*
X17187458Y-14595734D01*
X17206506Y-14605257D01*
X17225553Y-14605257D01*
X17444601Y-14471924D02*
X17444601Y-14671924D01*
X17444601Y-14481448D02*
X17463648Y-14471924D01*
X17501744Y-14471924D01*
X17520791Y-14481448D01*
X17530315Y-14490972D01*
X17539839Y-14510019D01*
X17539839Y-14567162D01*
X17530315Y-14586210D01*
X17520791Y-14595734D01*
X17501744Y-14605257D01*
X17463648Y-14605257D01*
X17444601Y-14595734D01*
X17654125Y-14605257D02*
X17635077Y-14595734D01*
X17625553Y-14576686D01*
X17625553Y-14405257D01*
X17816029Y-14605257D02*
X17816029Y-14500496D01*
X17806506Y-14481448D01*
X17787458Y-14471924D01*
X17749363Y-14471924D01*
X17730315Y-14481448D01*
X17816029Y-14595734D02*
X17796982Y-14605257D01*
X17749363Y-14605257D01*
X17730315Y-14595734D01*
X17720791Y-14576686D01*
X17720791Y-14557638D01*
X17730315Y-14538591D01*
X17749363Y-14529067D01*
X17796982Y-14529067D01*
X17816029Y-14519543D01*
X17882696Y-14471924D02*
X17958887Y-14471924D01*
X17911267Y-14405257D02*
X17911267Y-14576686D01*
X17920791Y-14595734D01*
X17939839Y-14605257D01*
X17958887Y-14605257D01*
X18101744Y-14595734D02*
X18082696Y-14605257D01*
X18044601Y-14605257D01*
X18025553Y-14595734D01*
X18016029Y-14576686D01*
X18016029Y-14500496D01*
X18025553Y-14481448D01*
X18044601Y-14471924D01*
X18082696Y-14471924D01*
X18101744Y-14481448D01*
X18111267Y-14500496D01*
X18111267Y-14519543D01*
X18016029Y-14538591D01*
X18282696Y-14605257D02*
X18282696Y-14405257D01*
X18282696Y-14595734D02*
X18263648Y-14605257D01*
X18225553Y-14605257D01*
X18206506Y-14595734D01*
X18196982Y-14586210D01*
X18187458Y-14567162D01*
X18187458Y-14510019D01*
X18196982Y-14490972D01*
X18206506Y-14481448D01*
X18225553Y-14471924D01*
X18263648Y-14471924D01*
X18282696Y-14481448D01*
X18358887Y-14681448D02*
X18368410Y-14671924D01*
X18387458Y-14643353D01*
X18396982Y-14624305D01*
X18406506Y-14595734D01*
X18416029Y-14548115D01*
X18416029Y-14510019D01*
X18406506Y-14462400D01*
X18396982Y-14433829D01*
X18387458Y-14414781D01*
X18368410Y-14386210D01*
X18358887Y-14376686D01*
X11506029Y-14734781D02*
X11506029Y-14934781D01*
X11406029Y-14834781D02*
X11606029Y-14834781D01*
X11844601Y-14725257D02*
X11968410Y-14725257D01*
X11901744Y-14801448D01*
X11930315Y-14801448D01*
X11949363Y-14810972D01*
X11958886Y-14820496D01*
X11968410Y-14839543D01*
X11968410Y-14887162D01*
X11958886Y-14906210D01*
X11949363Y-14915734D01*
X11930315Y-14925257D01*
X11873172Y-14925257D01*
X11854125Y-14915734D01*
X11844601Y-14906210D01*
X12054125Y-14906210D02*
X12063648Y-14915734D01*
X12054125Y-14925257D01*
X12044601Y-14915734D01*
X12054125Y-14906210D01*
X12054125Y-14925257D01*
X12235077Y-14791924D02*
X12235077Y-14925257D01*
X12187458Y-14715734D02*
X12139839Y-14858591D01*
X12263648Y-14858591D01*
X12435077Y-14725257D02*
X12339839Y-14725257D01*
X12330315Y-14820496D01*
X12339839Y-14810972D01*
X12358886Y-14801448D01*
X12406505Y-14801448D01*
X12425553Y-14810972D01*
X12435077Y-14820496D01*
X12444601Y-14839543D01*
X12444601Y-14887162D01*
X12435077Y-14906210D01*
X12425553Y-14915734D01*
X12406505Y-14925257D01*
X12358886Y-14925257D01*
X12339839Y-14915734D01*
X12330315Y-14906210D01*
X12568410Y-14725257D02*
X12587458Y-14725257D01*
X12606505Y-14734781D01*
X12616029Y-14744305D01*
X12625553Y-14763353D01*
X12635077Y-14801448D01*
X12635077Y-14849067D01*
X12625553Y-14887162D01*
X12616029Y-14906210D01*
X12606505Y-14915734D01*
X12587458Y-14925257D01*
X12568410Y-14925257D01*
X12549363Y-14915734D01*
X12539839Y-14906210D01*
X12530315Y-14887162D01*
X12520791Y-14849067D01*
X12520791Y-14801448D01*
X12530315Y-14763353D01*
X12539839Y-14744305D01*
X12549363Y-14734781D01*
X12568410Y-14725257D01*
X12720791Y-14925257D02*
X12720791Y-14791924D01*
X12720791Y-14810972D02*
X12730315Y-14801448D01*
X12749363Y-14791924D01*
X12777934Y-14791924D01*
X12796982Y-14801448D01*
X12806505Y-14820496D01*
X12806505Y-14925257D01*
X12806505Y-14820496D02*
X12816029Y-14801448D01*
X12835077Y-14791924D01*
X12863648Y-14791924D01*
X12882696Y-14801448D01*
X12892220Y-14820496D01*
X12892220Y-14925257D01*
X12987458Y-14925257D02*
X12987458Y-14791924D01*
X12987458Y-14810972D02*
X12996982Y-14801448D01*
X13016029Y-14791924D01*
X13044601Y-14791924D01*
X13063648Y-14801448D01*
X13073172Y-14820496D01*
X13073172Y-14925257D01*
X13073172Y-14820496D02*
X13082696Y-14801448D01*
X13101744Y-14791924D01*
X13130315Y-14791924D01*
X13149363Y-14801448D01*
X13158886Y-14820496D01*
X13158886Y-14925257D01*
X13549363Y-14715734D02*
X13377934Y-14972877D01*
X13806505Y-14725257D02*
X13825553Y-14725257D01*
X13844601Y-14734781D01*
X13854125Y-14744305D01*
X13863648Y-14763353D01*
X13873172Y-14801448D01*
X13873172Y-14849067D01*
X13863648Y-14887162D01*
X13854125Y-14906210D01*
X13844601Y-14915734D01*
X13825553Y-14925257D01*
X13806505Y-14925257D01*
X13787458Y-14915734D01*
X13777934Y-14906210D01*
X13768410Y-14887162D01*
X13758886Y-14849067D01*
X13758886Y-14801448D01*
X13768410Y-14763353D01*
X13777934Y-14744305D01*
X13787458Y-14734781D01*
X13806505Y-14725257D01*
X13958886Y-14906210D02*
X13968410Y-14915734D01*
X13958886Y-14925257D01*
X13949363Y-14915734D01*
X13958886Y-14906210D01*
X13958886Y-14925257D01*
X14158886Y-14925257D02*
X14044601Y-14925257D01*
X14101744Y-14925257D02*
X14101744Y-14725257D01*
X14082696Y-14753829D01*
X14063648Y-14772877D01*
X14044601Y-14782400D01*
X14225553Y-14725257D02*
X14349363Y-14725257D01*
X14282696Y-14801448D01*
X14311267Y-14801448D01*
X14330315Y-14810972D01*
X14339839Y-14820496D01*
X14349363Y-14839543D01*
X14349363Y-14887162D01*
X14339839Y-14906210D01*
X14330315Y-14915734D01*
X14311267Y-14925257D01*
X14254125Y-14925257D01*
X14235077Y-14915734D01*
X14225553Y-14906210D01*
X14530315Y-14725257D02*
X14435077Y-14725257D01*
X14425553Y-14820496D01*
X14435077Y-14810972D01*
X14454125Y-14801448D01*
X14501744Y-14801448D01*
X14520791Y-14810972D01*
X14530315Y-14820496D01*
X14539839Y-14839543D01*
X14539839Y-14887162D01*
X14530315Y-14906210D01*
X14520791Y-14915734D01*
X14501744Y-14925257D01*
X14454125Y-14925257D01*
X14435077Y-14915734D01*
X14425553Y-14906210D01*
X14654125Y-14810972D02*
X14635077Y-14801448D01*
X14625553Y-14791924D01*
X14616029Y-14772877D01*
X14616029Y-14763353D01*
X14625553Y-14744305D01*
X14635077Y-14734781D01*
X14654125Y-14725257D01*
X14692220Y-14725257D01*
X14711267Y-14734781D01*
X14720791Y-14744305D01*
X14730315Y-14763353D01*
X14730315Y-14772877D01*
X14720791Y-14791924D01*
X14711267Y-14801448D01*
X14692220Y-14810972D01*
X14654125Y-14810972D01*
X14635077Y-14820496D01*
X14625553Y-14830019D01*
X14616029Y-14849067D01*
X14616029Y-14887162D01*
X14625553Y-14906210D01*
X14635077Y-14915734D01*
X14654125Y-14925257D01*
X14692220Y-14925257D01*
X14711267Y-14915734D01*
X14720791Y-14906210D01*
X14730315Y-14887162D01*
X14730315Y-14849067D01*
X14720791Y-14830019D01*
X14711267Y-14820496D01*
X14692220Y-14810972D01*
X14806505Y-14725257D02*
X14806505Y-14763353D01*
X14882696Y-14725257D02*
X14882696Y-14763353D01*
X15177934Y-15001448D02*
X15168410Y-14991924D01*
X15149363Y-14963353D01*
X15139839Y-14944305D01*
X15130315Y-14915734D01*
X15120791Y-14868115D01*
X15120791Y-14830019D01*
X15130315Y-14782400D01*
X15139839Y-14753829D01*
X15149363Y-14734781D01*
X15168410Y-14706210D01*
X15177934Y-14696686D01*
X15339839Y-14791924D02*
X15339839Y-14925257D01*
X15292220Y-14715734D02*
X15244601Y-14858591D01*
X15368410Y-14858591D01*
X15596982Y-14925257D02*
X15596982Y-14725257D01*
X15682696Y-14925257D02*
X15682696Y-14820496D01*
X15673172Y-14801448D01*
X15654125Y-14791924D01*
X15625553Y-14791924D01*
X15606505Y-14801448D01*
X15596982Y-14810972D01*
X15806505Y-14925257D02*
X15787458Y-14915734D01*
X15777934Y-14906210D01*
X15768410Y-14887162D01*
X15768410Y-14830019D01*
X15777934Y-14810972D01*
X15787458Y-14801448D01*
X15806505Y-14791924D01*
X15835077Y-14791924D01*
X15854125Y-14801448D01*
X15863648Y-14810972D01*
X15873172Y-14830019D01*
X15873172Y-14887162D01*
X15863648Y-14906210D01*
X15854125Y-14915734D01*
X15835077Y-14925257D01*
X15806505Y-14925257D01*
X15987458Y-14925257D02*
X15968410Y-14915734D01*
X15958886Y-14896686D01*
X15958886Y-14725257D01*
X16139839Y-14915734D02*
X16120791Y-14925257D01*
X16082696Y-14925257D01*
X16063648Y-14915734D01*
X16054125Y-14896686D01*
X16054125Y-14820496D01*
X16063648Y-14801448D01*
X16082696Y-14791924D01*
X16120791Y-14791924D01*
X16139839Y-14801448D01*
X16149363Y-14820496D01*
X16149363Y-14839543D01*
X16054125Y-14858591D01*
X16225553Y-14915734D02*
X16244601Y-14925257D01*
X16282696Y-14925257D01*
X16301744Y-14915734D01*
X16311267Y-14896686D01*
X16311267Y-14887162D01*
X16301744Y-14868115D01*
X16282696Y-14858591D01*
X16254125Y-14858591D01*
X16235077Y-14849067D01*
X16225553Y-14830019D01*
X16225553Y-14820496D01*
X16235077Y-14801448D01*
X16254125Y-14791924D01*
X16282696Y-14791924D01*
X16301744Y-14801448D01*
X16377934Y-15001448D02*
X16387458Y-14991924D01*
X16406505Y-14963353D01*
X16416029Y-14944305D01*
X16425553Y-14915734D01*
X16435077Y-14868115D01*
X16435077Y-14830019D01*
X16425553Y-14782400D01*
X16416029Y-14753829D01*
X16406505Y-14734781D01*
X16387458Y-14706210D01*
X16377934Y-14696686D01*
X16739839Y-15001448D02*
X16730315Y-14991924D01*
X16711267Y-14963353D01*
X16701744Y-14944305D01*
X16692220Y-14915734D01*
X16682696Y-14868115D01*
X16682696Y-14830019D01*
X16692220Y-14782400D01*
X16701744Y-14753829D01*
X16711267Y-14734781D01*
X16730315Y-14706210D01*
X16739839Y-14696686D01*
X16816029Y-14791924D02*
X16816029Y-14925257D01*
X16816029Y-14810972D02*
X16825553Y-14801448D01*
X16844601Y-14791924D01*
X16873172Y-14791924D01*
X16892220Y-14801448D01*
X16901744Y-14820496D01*
X16901744Y-14925257D01*
X17025553Y-14925257D02*
X17006506Y-14915734D01*
X16996982Y-14906210D01*
X16987458Y-14887162D01*
X16987458Y-14830019D01*
X16996982Y-14810972D01*
X17006506Y-14801448D01*
X17025553Y-14791924D01*
X17054125Y-14791924D01*
X17073172Y-14801448D01*
X17082696Y-14810972D01*
X17092220Y-14830019D01*
X17092220Y-14887162D01*
X17082696Y-14906210D01*
X17073172Y-14915734D01*
X17054125Y-14925257D01*
X17025553Y-14925257D01*
X17149363Y-14791924D02*
X17225553Y-14791924D01*
X17177934Y-14725257D02*
X17177934Y-14896686D01*
X17187458Y-14915734D01*
X17206506Y-14925257D01*
X17225553Y-14925257D01*
X17444601Y-14791924D02*
X17444601Y-14991924D01*
X17444601Y-14801448D02*
X17463648Y-14791924D01*
X17501744Y-14791924D01*
X17520791Y-14801448D01*
X17530315Y-14810972D01*
X17539839Y-14830019D01*
X17539839Y-14887162D01*
X17530315Y-14906210D01*
X17520791Y-14915734D01*
X17501744Y-14925257D01*
X17463648Y-14925257D01*
X17444601Y-14915734D01*
X17654125Y-14925257D02*
X17635077Y-14915734D01*
X17625553Y-14896686D01*
X17625553Y-14725257D01*
X17816029Y-14925257D02*
X17816029Y-14820496D01*
X17806506Y-14801448D01*
X17787458Y-14791924D01*
X17749363Y-14791924D01*
X17730315Y-14801448D01*
X17816029Y-14915734D02*
X17796982Y-14925257D01*
X17749363Y-14925257D01*
X17730315Y-14915734D01*
X17720791Y-14896686D01*
X17720791Y-14877638D01*
X17730315Y-14858591D01*
X17749363Y-14849067D01*
X17796982Y-14849067D01*
X17816029Y-14839543D01*
X17882696Y-14791924D02*
X17958887Y-14791924D01*
X17911267Y-14725257D02*
X17911267Y-14896686D01*
X17920791Y-14915734D01*
X17939839Y-14925257D01*
X17958887Y-14925257D01*
X18101744Y-14915734D02*
X18082696Y-14925257D01*
X18044601Y-14925257D01*
X18025553Y-14915734D01*
X18016029Y-14896686D01*
X18016029Y-14820496D01*
X18025553Y-14801448D01*
X18044601Y-14791924D01*
X18082696Y-14791924D01*
X18101744Y-14801448D01*
X18111267Y-14820496D01*
X18111267Y-14839543D01*
X18016029Y-14858591D01*
X18282696Y-14925257D02*
X18282696Y-14725257D01*
X18282696Y-14915734D02*
X18263648Y-14925257D01*
X18225553Y-14925257D01*
X18206506Y-14915734D01*
X18196982Y-14906210D01*
X18187458Y-14887162D01*
X18187458Y-14830019D01*
X18196982Y-14810972D01*
X18206506Y-14801448D01*
X18225553Y-14791924D01*
X18263648Y-14791924D01*
X18282696Y-14801448D01*
X18358887Y-15001448D02*
X18368410Y-14991924D01*
X18387458Y-14963353D01*
X18396982Y-14944305D01*
X18406506Y-14915734D01*
X18416029Y-14868115D01*
X18416029Y-14830019D01*
X18406506Y-14782400D01*
X18396982Y-14753829D01*
X18387458Y-14734781D01*
X18368410Y-14706210D01*
X18358887Y-14696686D01*
M02*
